<?xml version="1.0" encoding="utf-8"?>
<!-- Generator: Adobe Illustrator 16.0.0, SVG Export Plug-In . SVG Version: 6.00 Build 0)  -->
<!DOCTYPE svg PUBLIC "-//W3C//DTD SVG 1.1//EN" "http://www.w3.org/Graphics/SVG/1.1/DTD/svg11.dtd">
<svg version="1.1" id="Layer_1" xmlns="http://www.w3.org/2000/svg" xmlns:xlink="http://www.w3.org/1999/xlink" x="0px" y="0px"
	 width="283.46px" height="283.46px" viewBox="0 0 283.46 283.46" enable-background="new 0 0 283.46 283.46" xml:space="preserve">
<g>
	<path fill-rule="evenodd" clip-rule="evenodd" d="M202.294,117.877c2.645-0.333,5.259-0.003,7.864-0.093
		c0.854-0.029,0.626,0.584,0.604,0.969c-0.09,1.471-0.277,2.937-0.374,4.408c-0.057,0.878-0.066,1.565,1.321,1.385
		c0.991-0.128,2.102-0.086,3.123,0.027c1.613,0.179,1.754-0.563,1.554-1.827c-0.195-1.23-0.242-2.485-0.45-3.712
		c-0.16-0.942,0.228-1.278,1.083-1.277c2.358,0.003,4.718,0.007,7.074,0.021c0.799,0.004,1.256,0.179,1.077,1.219
		c-0.646,3.749-1.549,7.477-3.942,10.445c-1.181,1.463-2.397,3.19-5.153,3.046c-6.514-0.34-13.057-0.085-19.588-0.055
		c-0.988,0.004-1.865-0.185-2.585-0.925c-3.438-3.545-5.077-7.886-5.618-12.708c-0.053-0.463-0.276-1.099,0.652-1.083
		c2.417,0.042,4.836,0.035,7.254,0.041c0.913,0.003,1.334,0.33,1.18,1.35c-0.219,1.454-0.294,2.93-0.446,4.394
		c-0.063,0.587-0.016,1.166,0.728,1.093c1.567-0.156,3.147,0.252,4.714-0.163c0.397-0.106,0.702-0.054,0.645-0.6
		C202.803,121.868,202.902,119.869,202.294,117.877z"/>
	<path fill-rule="evenodd" clip-rule="evenodd" d="M115.289,108.588c-3.051,0.139-6.007-2.609-6.193-5.757
		c-0.213-3.601,2.472-6.777,5.839-6.904c3.57-0.134,6.88,2.281,6.823,6.775C121.724,105.327,119.552,108.521,115.289,108.588z"/>
	<path fill-rule="evenodd" clip-rule="evenodd" d="M58.515,91.161c0.864,0.979,1.805,1.67,2.94,2.121
		c0.435,0.173,0.829,0.239,1.196,0.023c0.508-0.302,0.372-0.86,0.27-1.289c-0.222-0.933-0.676-1.752-1.428-2.396
		c-0.643-0.551-0.455-0.965,0.272-1.272c1.096-0.462,2.271-0.586,3.395-0.429c2.071,0.291,2.156,0.663,0.96,2.343
		c-0.59,0.829-1.582,1.841-0.629,2.783c1.033,1.022,2.074-0.085,2.901-0.699c1.413-1.049,1.838-1.019,2.125,0.679
		c0.224,1.329,0.361,2.702-0.276,4.027c-0.368,0.765-0.608,1.09-1.268,0.252c-0.6-0.759-1.438-1.25-2.362-1.508
		c-1.092-0.304-1.622,0.237-1.393,1.342c0.224,1.079,0.955,1.862,1.61,2.681c0.512,0.64,0.45,0.934-0.415,1.157
		c-1.458,0.377-2.889,0.574-4.345,0.07c-0.958-0.332-1.538-0.689-0.487-1.704c0.582-0.562,0.913-1.397,1.304-2.137
		c0.21-0.398,0.125-0.85-0.176-1.183c-0.314-0.348-0.702-0.349-1.149-0.159c-0.912,0.388-1.866,0.682-2.533,1.489
		c-0.53,0.641-0.872,0.397-1.083-0.27C57.319,95.103,57.218,93.167,58.515,91.161z"/>
	<path fill-rule="evenodd" clip-rule="evenodd" d="M274.471,132.754c-3.329-2.379-5.842-5.391-7.575-9.09
		c-0.488-1.041-0.99-2.163-1.909-2.871c-0.972-0.748-1.514-1.379-1.019-2.721c0.403-1.091-0.324-2.177-1.181-2.714
		c-0.742-0.465-1.367,0.423-1.882,1.01c-0.531,0.603-1.113,0.708-1.958,0.564c-4.329-0.739-8.453-0.031-12.336,2.034
		c-3.641,1.936-6.048,4.94-7.738,8.649c-2.166,4.75-3.174,9.769-3.511,14.918c-0.369,5.652-0.134,11.305,0.969,16.874
		c0.592,2.988,1.331,5.943,2.688,8.729c0.466,0.961,1.024,1.443,1.855,1.607h24.143c0.648-0.135,0.914-0.562,0.999-1.354
		c0.331-3.014,0.689-6.024,1.08-9.029c0.114-0.872-0.145-1.456-0.794-2.064c-2.962-2.764-5.705-5.72-7.645-9.332
		c-1.951-3.637-3.475-7.401-3.612-11.6c-0.022-0.644,0.121-1.502,0.672-1.551c0.738-0.066,0.566,0.844,0.668,1.375
		c0.658,3.451,2.595,4.553,6.065,3.717c3.012-0.725,6.045-1.212,8.583,1.477c0.334,0.354,1.436,1.326,2.322-0.124
		c0.732-1.194,1.677-2.271,2.278-3.571C276.659,135.469,276.426,134.152,274.471,132.754z"/>
	<path fill-rule="evenodd" clip-rule="evenodd" d="M224.307,190.925H188.77c-1.101,0.39-1.675,1.348-2.252,3.141
		c-0.41,1.275-0.054,1.432,1.036,1.429c5.903-0.022,11.806-0.021,17.708-0.017c6.872,0.005,13.741,0.003,20.61,0.049
		c1.11,0.008,1.221-0.453,1.015-1.363C226.46,192.283,225.703,191.293,224.307,190.925z"/>
	<g>
		<path fill-rule="evenodd" clip-rule="evenodd" d="M124.989,170.651c0.108-0.003,0.216-0.008,0.324-0.014c0,0.005,0,0.01,0,0.014
			h4.08c0.542-1.276-0.603-1.924-1.069-2.777c-3.583-6.544-5.618-13.539-6.466-20.937c-0.194-1.695-0.035-3.447-0.648-5.26h-11.975
			c-0.267,0.312-0.36,0.737-0.388,1.27c-0.237,4.502-0.98,8.935-2.02,13.316c-1.217,5.135-4.041,9.597-6.076,14.388H124.989z"/>
		<path fill-rule="evenodd" clip-rule="evenodd" d="M130.105,171.229c-0.104-0.007-0.255-0.004-0.401-0.01h-29.497
			c-0.105,0.023-0.217,0.031-0.328,0.032c-1.18,0.011-1.631,0.897-1.58,1.765c0.065,1.079,0.899,1.432,2.041,1.428
			c9.838-0.033,19.677-0.006,29.515,0.019c0.989,0.002,1.897-0.221,2.025-1.295C132.019,171.993,131.341,171.302,130.105,171.229z"
			/>
	</g>
	<g>
		<path fill-rule="evenodd" clip-rule="evenodd" d="M194.384,137.36h24.031c0.101-0.011,0.2-0.02,0.3-0.036
			c1.313-0.203,2.385-1.405,2.202-2.465c-0.229-1.33-1.026-1.963-2.417-1.957c-7.786,0.04-15.572,0.057-23.357,0.057
			c-1.024,0-1.875,0.25-2.302,1.226C192.254,135.527,193.026,136.903,194.384,137.36z"/>
		<path fill-rule="evenodd" clip-rule="evenodd" d="M219.59,155.198c-0.575-5.052-1.032-10.111-1.51-15.17
			c-0.137-1.454-0.209-1.942-0.912-2.1h-21.026c-0.314,0.109-0.546,0.373-0.595,1.019c-0.244,3.358-0.595,6.709-0.92,10.06
			c-0.523,5.386-1.062,10.77-1.604,16.278c2.888,0,5.827-0.004,8.768,0c5.636,0.006,11.271-0.019,16.905,0.049
			c1.34,0.017,1.715-0.427,1.615-1.729C220.098,160.799,219.907,157.973,219.59,155.198z"/>
	</g>
	<path fill-rule="evenodd" clip-rule="evenodd" d="M50.444,170.084h27.528c0.095-1.026-0.542-1.845-0.965-2.647
		c-3.955-7.497-6.299-15.44-6.89-23.899c-0.153-2.195-0.197-2.618-1.645-2.804H58.221c-0.351,0.097-0.63,0.327-0.633,0.884
		c-0.003,0.843-0.28,1.673-0.296,2.478c-0.088,4.385-1.011,8.622-2.065,12.842c-1.003,4.014-2.995,7.641-4.525,11.448
		C50.447,169.02,50.004,169.659,50.444,170.084z"/>
	<path fill-rule="evenodd" clip-rule="evenodd" d="M49.111,173.894h30.239c0.565-0.233,0.934-0.751,1.041-1.401
		c0.142-0.872-0.713-1.53-1.674-1.794c-0.12-0.034-0.295-0.019-0.447-0.047H49.755c-0.026,0.003-0.053,0.004-0.08,0.006
		c-1.138,0.07-1.799,0.733-1.767,1.813C47.934,173.3,48.396,173.744,49.111,173.894z"/>
	<g>
		<path fill-rule="evenodd" clip-rule="evenodd" d="M47.484,191.01h32.374c0.693-0.163,1.194-0.569,1.597-1.388
			c2.081-4.222,1.448-8.28-0.681-12.215c-0.552-1.02-0.832-2.415-1.957-2.945H57.477c-1.111,0.034-2.221,0.054-3.323,0h-3.842
			c-1.571,0.383-2.695,1.449-3.671,3.287c-2.187,4.119-2.359,8.058-0.3,12.188C46.634,190.528,46.997,190.86,47.484,191.01z"/>
		<path fill-rule="evenodd" clip-rule="evenodd" d="M80.281,191.575H47.441c-1.395,0.265-2.329,1.511-2.09,3.115
			c0.234,1.584,1.628,0.587,2.488,0.794c0.247,0.062,0.522,0.013,0.785,0.013c10.503,0.003,21.008,0.017,31.512-0.031
			c0.654-0.003,1.619,0.468,2-0.371c0.39-0.857-0.069-1.73-0.522-2.532C81.274,191.962,80.816,191.692,80.281,191.575z"/>
	</g>
	<path fill-rule="evenodd" clip-rule="evenodd" d="M147.124,171.595h26.596c1.003-0.356,1.412-1.187,1.157-2.113
		c-0.26-0.943-1.069-1.457-2.191-1.447c-4.739,0.038-9.479,0.016-14.219,0.013c-3.476-0.001-6.952-0.019-10.428-0.011
		c-1.297,0.004-1.968,0.772-1.97,1.99C146.066,170.902,146.471,171.391,147.124,171.595z"/>
	<g>
		<path fill-rule="evenodd" clip-rule="evenodd" d="M190.959,169.703h2.024c0.023,0,0.045,0,0.068,0h28.877
			c1.442-0.162,2.229-0.832,2.185-1.867c-0.054-1.274-1.059-1.971-2.857-1.977c-2.357-0.01-4.716-0.012-7.073-0.018
			c-5.708-0.01-11.415-0.026-17.124-0.028c-1.723-0.003-3.444,0.028-5.167,0.048c-1.388,0.017-2.073,0.916-2.082,2.111
			C189.803,168.849,190.189,169.475,190.959,169.703z"/>
		<path fill-rule="evenodd" clip-rule="evenodd" d="M226.698,177.665c-0.963-2.364-2.435-4.421-3.636-6.639
			c-0.366-0.676-0.979-0.723-1.629-0.722c-1.841,0-3.683,0.001-5.524,0.001c-1.754,0.001-3.507,0-5.26,0c0-0.012,0-0.022,0-0.034
			h-18.546c-0.232,0.048-0.439,0.156-0.603,0.396c-1.597,2.336-3.277,4.639-4.622,7.119c-1.645,3.035-1.052,6.261,0.055,9.323
			c0.765,2.117,1.25,2.879,2.578,3.106h34.88c0.338-0.129,0.645-0.372,0.891-0.814C227.35,185.686,228.413,181.874,226.698,177.665z
			"/>
	</g>
	<g>
		<path fill-rule="evenodd" clip-rule="evenodd" d="M131.72,191.196c1.571-0.595,1.874-2.306,2.285-3.772
			c1.186-4.234-0.434-7.927-2.513-11.5c-0.514-0.885-1.109-1.142-2.15-1.136c-9.592,0.054-19.184,0.049-28.776-0.013
			c-0.95-0.006-1.567,0.324-1.953,1.015c-0.797,1.43-1.875,2.673-2.492,4.234c-1.597,4.037-0.889,7.688,1.389,11.172H131.72z"/>
		<path fill-rule="evenodd" clip-rule="evenodd" d="M132.116,191.765H97.352c-0.258,0.21-0.528,0.43-0.787,0.668
			c-0.784,0.716-0.994,1.749-0.717,2.612c0.265,0.831,1.291,0.406,1.969,0.413c4.519,0.044,9.038,0.048,13.558,0.042
			c7.117-0.01,14.233-0.064,21.349-0.025c1.303,0.008,1.272-0.439,1.11-1.5C133.639,192.689,132.995,192.087,132.116,191.765z"/>
	</g>
	<path fill-rule="evenodd" clip-rule="evenodd" d="M239.222,173.588h27.414c0.663-0.417,1.199-0.976,0.847-1.991
		c-0.434-1.249-1.511-1.315-2.598-1.313c-0.212,0-0.421,0.008-0.633,0.006c-5.252-0.006-10.506-0.022-15.759-0.019
		c-2.737,0.001-5.474,0.041-8.211,0.048c-1.237,0.001-2.137,0.552-2.144,1.803C238.134,172.962,238.589,173.39,239.222,173.588z"/>
	<g>
		<path fill-rule="evenodd" clip-rule="evenodd" d="M266.777,191.521c-1.669,0.001-3.338,0-5.007,0c0-0.004,0-0.006,0-0.01h-19.027
			c-0.681,0.048-1.361,0.088-2.034,0h-2.198c-0.085,0.016-0.18,0.016-0.283,0c0,0,0,0-0.002,0h-0.633
			c-0.841,0.142-1.28,0.872-1.631,1.599c-0.799,1.646-0.258,2.397,1.552,2.359c0.84-0.019,1.681,0.001,2.522,0.001
			c9.361,0.005,18.724,0.009,28.086,0.005c0.494-0.001,1.068,0.154,1.25-0.606C269.745,193.32,268.368,191.518,266.777,191.521z"/>
		<path fill-rule="evenodd" clip-rule="evenodd" d="M266.393,174.156h-26.87c-0.662,0.31-1.15,0.959-1.629,1.729
			c-0.52,0.836-0.921,1.71-1.361,2.573c-1.88,3.663-1.682,7.321-0.036,11.015c0.326,0.735,0.714,1.266,1.288,1.47h1.219
			c0.005,0,0.01-0.002,0.012-0.003c0.001-0.001,0.001-0.004,0.001-0.006c0.005,0.002,0.008,0.005,0.011,0.006
			c1.984,0,3.968,0,5.952,0c0,0.001,0,0.003,0,0.003h22.358c0.46-0.138,0.794-0.447,1.041-0.944
			c0.731-1.462,1.338-2.943,1.465-4.631C270.156,181.178,268.598,177.626,266.393,174.156z"/>
		<polygon fill-rule="evenodd" clip-rule="evenodd" points="239.015,190.94 239.015,190.943 239.032,190.943 239.026,190.94 
			239.016,190.94 		"/>
	</g>
	<path fill-rule="evenodd" clip-rule="evenodd" d="M168.157,133.267c-0.761-0.683-0.458-0.942-0.051-1.596
		c2.165-3.475,2.974-7.051,0.832-10.926c-1.854-3.354-3.94-6.543-6.23-9.605c-0.338-0.45-0.521-0.809-0.409-1.229
		c0.881-0.576,1.465-1.57,1.465-2.702c0-1.783-1.444-3.228-3.228-3.228s-3.228,1.445-3.228,3.228c0,1.125,0.577,2.115,1.449,2.692
		c0.08,0.732-0.432,1.322-0.916,1.992c-0.37,0.512-0.719,1.043-1.128,1.523c-0.849,0.993-0.993,1.969-0.326,3.172
		c0.735,1.331,1.289,2.766,1.895,4.167c0.133,0.307,0.396,0.747-0.108,0.949c-0.421,0.168-0.673-0.19-0.852-0.522
		c-0.147-0.278-0.222-0.599-0.386-0.867c-0.753-1.223-0.979-2.74-2.033-3.864c-0.557,0.72-1.125,1.287-1.491,1.963
		c-1.171,2.167-2.836,4.087-2.627,6.874c0.19,2.506,1.043,4.665,2.405,6.688c0.216,0.32,0.455,0.509,0.166,0.94
		c-1.263,1.882-1.235,2.746,0.607,3.334h13.492c0.02-0.007,0.038-0.013,0.056-0.022C168.891,135.537,169.253,134.25,168.157,133.267
		z"/>
	<g>
		<path fill-rule="evenodd" clip-rule="evenodd" d="M146.244,190.629h27.747c0.697-0.148,1.163-0.555,1.552-1.344
			c2.187-4.439,2.226-8.814,0.037-13.278c-0.626-1.278-1.557-2.431-1.902-3.844h-23.351c-0.103,0.011-0.202,0.011-0.301,0h-1.879
			c-1.228,0.359-1.919,1.511-2.688,2.858c-2.632,4.611-2.881,9.198-0.768,14.011C145.059,189.871,145.499,190.437,146.244,190.629z"
			/>
		<path fill-rule="evenodd" clip-rule="evenodd" d="M174.335,191.196h-19.924c-0.547,0.047-1.11,0.079-1.674,0h-6.254
			c-1.632,0.229-2.277,0.955-2.479,2.794c-0.113,1.044,0.133,1.493,1.348,1.483c6.191-0.054,12.385,0.003,18.578,0.007
			c3.731,0.004,7.465-0.013,11.195-0.029c0.495-0.001,1.042,0.17,1.201-0.639C176.619,193.32,175.696,191.661,174.335,191.196z"/>
	</g>
	<path fill-rule="evenodd" clip-rule="evenodd" d="M126.542,109.85c-1.953,1.061-3.877,1.198-5.684,0.03
		c-1.074-0.694-1.725-0.633-2.795-0.016c-1.878,1.084-3.883,1.57-5.856-0.078c-0.463-0.387-1.125-0.909-1.98-0.334
		c-2.177,1.462-4.427,1.494-6.768,0.245c-1.652-0.881-3.252-0.294-4.316,1.385c-0.805,1.268-0.499,3.009,0.868,4.084
		c5.432,4.273,7.292,10.252,7.968,16.749c0.188,1.81,0.205,2.509-0.503,2.802h-2.862c-1.766,0-3.198,1.432-3.198,3.197
		c0,1.669,1.279,3.038,2.91,3.184c0.019,0.003,0.038,0.009,0.057,0.014h0.231h20.319h0.086c0.016-0.002,0.03-0.005,0.045-0.007
		c0.594-0.024,1.146-0.208,1.614-0.514c0.56-0.324,0.962-0.775,1.147-1.321c0.194-0.412,0.305-0.871,0.305-1.356
		c0-1.766-1.431-3.197-3.197-3.197h-2.372c-0.278-0.259-0.26-0.785-0.22-1.854c0.004-0.105-0.011-0.211-0.005-0.315
		c0.431-6.743,2.427-12.771,7.8-17.299c0.697-0.587,1.376-1.294,1.407-2.358C131.622,110.127,129.048,108.488,126.542,109.85z"/>
	<path fill-rule="evenodd" clip-rule="evenodd" d="M10.679,175.586h26.309c0.623-0.261,1.075-0.727,0.912-1.527
		c-0.164-0.806-0.569-1.164-1.087-1.328H11.037c-0.626,0.27-0.948,0.853-0.966,1.711C10.057,175.105,10.304,175.429,10.679,175.586z
		"/>
	<g>
		<path fill-rule="evenodd" clip-rule="evenodd" d="M9.752,191.409h28.136c0.764-0.44,1.142-1.335,1.512-2.262
			c1.211-3.022,0.813-5.988-0.375-8.881c-0.606-1.476-1.227-2.983-2.439-4.112H11.021c-0.089,0.051-0.172,0.118-0.246,0.216
			c-2.792,3.716-4.587,7.669-2.879,12.428C8.492,190.459,8.842,191.14,9.752,191.409z"/>
		<path fill-rule="evenodd" clip-rule="evenodd" d="M37.963,191.976H9.218c-1.04,0.338-1.641,1.376-1.518,2.678
			c0.138,1.464,1.327,0.791,1.971,0.799c5.782,0.067,11.565,0.032,17.347,0.026c3.877-0.002,7.756-0.033,11.633,0
			c0.966,0.01,1.171-0.32,0.974-1.219C39.344,192.971,38.953,192.327,37.963,191.976z"/>
	</g>
	<path fill-rule="evenodd" clip-rule="evenodd" d="M28.877,151.963c-0.237-1.013-0.276-1.468,0.086-1.67h3.704
		c2.108,0,3.817-1.709,3.817-3.818c0-2.108-1.709-3.818-3.817-3.818h-3.844c-0.036-0.012-0.071-0.022-0.106-0.035
		c6.293-4.495,5.621-11.712,1.976-15.598c-3.519-3.751-10.143-4.167-14.168,0.063c-3.151,3.311-4.628,10.297,2.031,15.57h-4.064
		c-2.108,0-3.818,1.71-3.818,3.818c0,2.109,1.71,3.818,3.818,3.818h3.595c0.719,0.238,0.608,0.865,0.185,2.531
		c-1.562,6.163-3.179,12.31-5.604,18.202c-0.237,0.574-0.185,0.826,0.071,0.962h22.543c0.381-0.282,0.206-0.645-0.242-1.688
		C32.483,164.356,30.359,158.266,28.877,151.963z"/>
	<path fill-rule="evenodd" clip-rule="evenodd" d="M78.712,113.404c0.788-1.418,0.852-2.923,0.398-4.428
		c-0.801-2.652-2.933-4-6.109-3.912c-1.326,0.038-2.491-0.049-2.401-1.829c0.045-0.898-0.588-1.235-1.278-1.237
		c-3.5-0.012-7,0.057-10.501,0.078c-0.879,0.006-1.775,0.265-1.806,1.16c-0.053,1.536-0.677,1.978-2.099,1.718
		c-0.447-0.083-0.938,0.054-1.405,0.103c-5.091,0.529-6.596,5.28-4.24,9.236c2.041,3.426,4.407,6.658,6.633,9.974
		c0.339,0.505,0.436,1.041,0.397,1.649c-0.158,2.411-0.304,4.821-0.398,7.234c-0.017,0.427-0.073,0.754-0.23,0.988h-1.364
		c-1.665,0-3.015,1.349-3.015,3.013c0,1.512,1.113,2.759,2.563,2.977c0.045,0.011,0.086,0.027,0.131,0.037h0.321h18.73h0.412
		c0.599-0.115,1.097-0.345,1.482-0.671c0.012-0.008,0.023-0.018,0.035-0.027c0.04-0.036,0.081-0.07,0.118-0.108
		c0.594-0.55,0.967-1.334,0.967-2.208c0-1.664-1.35-3.013-3.014-3.013h-1.1c-0.117-0.149-0.181-0.354-0.192-0.641
		c-0.105-2.789-0.204-5.578-0.339-8.365c-0.026-0.534,0.244-0.874,0.501-1.276C74.14,120.349,76.688,117.046,78.712,113.404z"/>
	<g>
		<path fill-rule="evenodd" clip-rule="evenodd" d="M171.888,165.471c-1.888-3.883-3.497-7.857-4.692-12.029
			c-0.522-1.821-0.525-3.733-1.192-5.637h-1.974c-0.78,0.027-1.561,0.022-2.341,0h-3.449c-0.566,0.082-1.145,0.032-1.719,0h-0.848
			c-0.59,0.071-0.895,0.376-0.937,1.208c-0.086,1.683-0.454,3.34-0.941,4.959c-1.269,4.229-2.886,8.324-4.862,12.275
			c-0.348,0.697-0.645,1.4,0.497,1.436c2.139,0.066,4.281,0.01,6.422-0.001c4.871-0.028,9.742-0.106,14.611-0.068
			C172.792,167.632,172.903,167.558,171.888,165.471z"/>
		<path fill-rule="evenodd" clip-rule="evenodd" d="M152.348,147.236h0.332h1.079h5.101h6.926h1.958h0.957h0.17
			c0.024-0.003,0.045-0.009,0.068-0.012c1.329-0.121,2.369-1.236,2.369-2.597c0-1.44-1.167-2.608-2.607-2.608h-1.572
			c-0.043-0.111-0.072-0.251-0.085-0.429c-0.117-1.591,0.329-3.191-0.12-4.774h-12.535c-0.425,0.283-0.4,0.729-0.397,1.162
			c0.005,0.84,0.016,1.681,0.016,2.521c-0.001,0.591,0.002,1.135-0.271,1.521h-1.387c-1.442,0-2.609,1.167-2.609,2.608
			S150.905,147.236,152.348,147.236z"/>
	</g>
</g>
</svg>
